<svg xmlns="http://www.w3.org/2000/svg" viewBox="0 0 612 241.42"><defs><style>.a{fill:#003b5c;}.b{fill:#ffbf3f;}.c{fill:#fff;}</style></defs><path class="a" d="M251.31,252.86h5.44V283.8h-5.44Z" transform="translate(-94 -93.4)"/><path class="a" d="M264,260.46h5.35V264a8.44,8.44,0,0,1,7.29-4.06c5.26,0,8.31,3.53,8.31,8.92v14.9h-5.35V270.54c0-3.62-1.81-5.7-5-5.7s-5.26,2.16-5.26,5.79V283.8H264Z" transform="translate(-94 -93.4)"/><path class="a" d="M289,280.75l2.38-3.62A13.22,13.22,0,0,0,299,280c2.3,0,3.62-1,3.62-2.52v-.09c0-1.81-2.47-2.43-5.21-3.27-3.45-1-7.29-2.39-7.29-6.85v-.09c0-4.42,3.66-7.12,8.3-7.12a16.17,16.17,0,0,1,8.58,2.66l-2.12,3.8a13.56,13.56,0,0,0-6.59-2.21c-2.08,0-3.27,1-3.27,2.29v.09c0,1.73,2.52,2.44,5.26,3.32,3.41,1.06,7.25,2.61,7.25,6.81v.08c0,4.91-3.8,7.34-8.66,7.34A16.35,16.35,0,0,1,289,280.75Z" transform="translate(-94 -93.4)"/><path class="a" d="M312.32,275.31V260.46h5.35v13.26c0,3.63,1.81,5.66,5,5.66s5.26-2.12,5.26-5.75V260.46h5.4V283.8h-5.4v-3.62a8.38,8.38,0,0,1-7.29,4.11C315.37,284.29,312.32,280.75,312.32,275.31Z" transform="translate(-94 -93.4)"/><path class="a" d="M339.53,260.46h5.35v5.26c1.46-3.49,4.16-5.88,8.27-5.7v5.66h-.31c-4.69,0-8,3.05-8,9.24v8.88h-5.35Z" transform="translate(-94 -93.4)"/><path class="a" d="M354.68,277.08V277c0-5,3.94-7.51,9.64-7.51a19.68,19.68,0,0,1,6.28,1v-.57c0-3.32-2-5.09-5.79-5.09a16.33,16.33,0,0,0-6.68,1.46l-1.41-4.2a19.87,19.87,0,0,1,8.79-1.9c3.49,0,6.1.93,7.74,2.61s2.52,4.16,2.52,7.2V283.8h-5.22v-2.92a9.48,9.48,0,0,1-7.6,3.41C358.57,284.29,354.68,281.77,354.68,277.08Zm16-1.68v-1.59a14.81,14.81,0,0,0-5.3-.93c-3.45,0-5.48,1.46-5.48,3.89v.09c0,2.26,2,3.54,4.55,3.54C368,280.4,370.68,278.36,370.68,275.4Z" transform="translate(-94 -93.4)"/><path class="a" d="M381.72,260.46h5.35V264a8.44,8.44,0,0,1,7.29-4.06c5.26,0,8.31,3.53,8.31,8.92v14.9h-5.35V270.54c0-3.62-1.81-5.7-5-5.7s-5.26,2.16-5.26,5.79V283.8h-5.35Z" transform="translate(-94 -93.4)"/><path class="a" d="M407.39,272.26v-.08A12,12,0,0,1,419.55,260a11.77,11.77,0,0,1,9.32,4l-3.36,3.58a7.81,7.81,0,0,0-6-2.92c-3.89,0-6.76,3.36-6.76,7.43v.09c0,4.15,2.87,7.47,7,7.47a8.16,8.16,0,0,0,6.06-2.88L429,280a11.78,11.78,0,0,1-9.54,4.38A11.92,11.92,0,0,1,407.39,272.26Z" transform="translate(-94 -93.4)"/><path class="a" d="M431.51,272.22v-.09c0-6.67,4.73-12.15,11.41-12.15,7.42,0,11.18,5.83,11.18,12.55,0,.48-.05,1-.09,1.5H436.86a6.51,6.51,0,0,0,6.72,5.92,8.48,8.48,0,0,0,6.32-2.78L453,280a11.79,11.79,0,0,1-9.55,4.38A11.65,11.65,0,0,1,431.51,272.22Zm17.29-1.72c-.36-3.45-2.39-6.15-5.93-6.15-3.27,0-5.57,2.52-6.06,6.15Z" transform="translate(-94 -93.4)"/><path class="a" d="M472.47,252.86h13.88c3.53,0,6.32,1,8.08,2.74a6.93,6.93,0,0,1,2.08,5.13v.08a7.36,7.36,0,0,1-4.42,6.9c3.63,1.24,6.14,3.32,6.14,7.51v.09c0,5.53-4.55,8.49-11.44,8.49H472.47Zm18.61,8.75c0-2.43-1.95-3.93-5.44-3.93h-7.82v8.22h7.42c3.49,0,5.84-1.37,5.84-4.2Zm-4.65,8.89h-8.61V279h9c3.72,0,6-1.46,6-4.24v-.09C492.8,272,490.72,270.5,486.43,270.5Z" transform="translate(-94 -93.4)"/><path class="a" d="M503.3,260.46h5.35v5.26c1.46-3.49,4.15-5.88,8.26-5.7v5.66h-.3c-4.69,0-8,3.05-8,9.24v8.88H503.3Z" transform="translate(-94 -93.4)"/><path class="a" d="M519,272.26v-.08a12.45,12.45,0,0,1,24.89-.09v.09a12.21,12.21,0,0,1-12.52,12.15A12.07,12.07,0,0,1,519,272.26Zm19.54,0v-.08a7.23,7.23,0,0,0-7.17-7.52c-4.28,0-7,3.36-7,7.43v.09a7.2,7.2,0,0,0,7.11,7.47C535.83,279.65,538.57,276.29,538.57,272.26Z" transform="translate(-94 -93.4)"/><path class="a" d="M548.89,251.53h5.35V270.8l9.68-10.34h6.5l-9.28,9.5,9.59,13.84h-6.28l-6.89-10.12-3.32,3.45v6.67h-5.35Z" transform="translate(-94 -93.4)"/><path class="a" d="M571.77,272.22v-.09c0-6.67,4.73-12.15,11.41-12.15,7.42,0,11.18,5.83,11.18,12.55,0,.48-.05,1-.09,1.5H577.12a6.52,6.52,0,0,0,6.72,5.92,8.46,8.46,0,0,0,6.32-2.78L593.3,280a11.79,11.79,0,0,1-9.55,4.38A11.65,11.65,0,0,1,571.77,272.22Zm17.29-1.72c-.36-3.45-2.39-6.15-5.93-6.15-3.27,0-5.57,2.52-6,6.15Z" transform="translate(-94 -93.4)"/><path class="a" d="M599.3,260.46h5.35v5.26c1.45-3.49,4.15-5.88,8.26-5.7v5.66h-.31c-4.68,0-8,3.05-8,9.24v8.88H599.3Z" transform="translate(-94 -93.4)"/><path class="a" d="M615.2,280.75l2.39-3.62a13.19,13.19,0,0,0,7.64,2.87c2.3,0,3.63-1,3.63-2.52v-.09c0-1.81-2.48-2.43-5.22-3.27-3.45-1-7.29-2.39-7.29-6.85v-.09c0-4.42,3.67-7.12,8.31-7.12a16.17,16.17,0,0,1,8.58,2.66l-2.13,3.8a13.53,13.53,0,0,0-6.58-2.21c-2.08,0-3.28,1-3.28,2.29v.09c0,1.73,2.52,2.44,5.26,3.32,3.41,1.06,7.26,2.61,7.26,6.81v.08c0,4.91-3.81,7.34-8.67,7.34A16.4,16.4,0,0,1,615.2,280.75Z" transform="translate(-94 -93.4)"/><path class="a" d="M669.55,280.22a13.61,13.61,0,0,1-9.46,4c-5.79,0-10.12-3.49-10.12-8.84v-.09c0-4,2.34-6.85,6.59-8.66A10,10,0,0,1,654,260.2v-.09c0-4.16,3.36-7.78,8.89-7.78,4.9,0,8.22,3.31,8.22,7.47v.09c0,4.06-2.7,6.5-6.81,8l5.3,5.4a44.87,44.87,0,0,0,3.32-6l4.11,2.16a46.17,46.17,0,0,1-4.2,7l4.91,4.95-4.07,2.92ZM666.46,277l-6.9-7c-2.87,1.24-4.11,3.14-4.11,5.13v.08c0,2.61,2.17,4.51,5.17,4.51A8.54,8.54,0,0,0,666.46,277Zm-.18-16.84v-.09a3.34,3.34,0,0,0-3.49-3.49,3.55,3.55,0,0,0-3.72,3.71v.09c0,1.54.62,2.69,2.35,4.59C664.6,263.87,666.28,262.41,666.28,260.2Z" transform="translate(-94 -93.4)"/><path class="a" d="M423.51,318.91v-.09a15.66,15.66,0,0,1,16-16,16.11,16.11,0,0,1,12.11,4.82l-3.49,4c-2.47-2.3-5.12-3.85-8.66-3.85-5.88,0-10.21,4.86-10.21,10.92v.09c0,6.05,4.29,11,10.21,11,3.8,0,6.23-1.5,8.88-4l3.49,3.54a16,16,0,0,1-12.55,5.48A15.57,15.57,0,0,1,423.51,318.91Z" transform="translate(-94 -93.4)"/><path class="a" d="M454.71,322.75v-.09a12.44,12.44,0,0,1,24.88-.08v.08a12.2,12.2,0,0,1-12.51,12.16A12.07,12.07,0,0,1,454.71,322.75Zm19.53,0v-.09a7.21,7.21,0,0,0-7.16-7.51c-4.28,0-7,3.36-7,7.43v.08a7.19,7.19,0,0,0,7.11,7.47C471.5,330.13,474.24,326.78,474.24,322.75Z" transform="translate(-94 -93.4)"/><path class="a" d="M484.57,311h5.35v3.58a8.45,8.45,0,0,1,7.29-4.07c5.26,0,8.31,3.54,8.31,8.93v14.9h-5.35V321c0-3.63-1.81-5.7-5-5.7s-5.26,2.16-5.26,5.79v13.17h-5.35Z" transform="translate(-94 -93.4)"/><path class="a" d="M509.62,331.24l2.39-3.63a13.14,13.14,0,0,0,7.64,2.88c2.3,0,3.63-1,3.63-2.52v-.09c0-1.81-2.48-2.43-5.22-3.27-3.45-1-7.29-2.39-7.29-6.85v-.09c0-4.42,3.67-7.12,8.31-7.12a16.19,16.19,0,0,1,8.57,2.65L525.53,317a13.55,13.55,0,0,0-6.58-2.22c-2.08,0-3.28,1-3.28,2.3v.09c0,1.73,2.52,2.43,5.26,3.32,3.41,1.06,7.25,2.61,7.25,6.81v.08c0,4.91-3.8,7.34-8.66,7.34A16.4,16.4,0,0,1,509.62,331.24Z" transform="translate(-94 -93.4)"/><path class="a" d="M533,325.8V311h5.34v13.26c0,3.63,1.82,5.66,5,5.66s5.26-2.12,5.26-5.75V311h5.39v23.34h-5.39v-3.63a8.4,8.4,0,0,1-7.29,4.12C536,334.78,533,331.24,533,325.8Z" transform="translate(-94 -93.4)"/><path class="a" d="M560.47,302h5.34v32.27h-5.34Z" transform="translate(-94 -93.4)"/><path class="a" d="M573.46,327.84V315.55h-3V311h3v-6.41h5.34V311h6.28v4.6H578.8V327c0,2.08,1.07,2.92,2.88,2.92a7.18,7.18,0,0,0,3.31-.79v4.37a9.17,9.17,0,0,1-4.82,1.2C576.24,334.69,573.46,333,573.46,327.84Z" transform="translate(-94 -93.4)"/><path class="a" d="M588.52,327.57v-.09c0-5,3.93-7.51,9.63-7.51a19.63,19.63,0,0,1,6.28,1v-.57c0-3.32-2-5.09-5.79-5.09a16.33,16.33,0,0,0-6.68,1.46l-1.41-4.2a19.87,19.87,0,0,1,8.79-1.9c3.5,0,6.11.93,7.74,2.61s2.52,4.15,2.52,7.2v13.84h-5.21v-2.92a9.52,9.52,0,0,1-7.61,3.41C592.4,334.78,588.52,332.25,588.52,327.57Zm16-1.68V324.3a14.87,14.87,0,0,0-5.31-.93c-3.45,0-5.48,1.46-5.48,3.89v.09c0,2.25,2,3.54,4.55,3.54C601.82,330.89,604.52,328.85,604.52,325.89Z" transform="translate(-94 -93.4)"/><path class="a" d="M615.55,311h5.35v3.58a8.45,8.45,0,0,1,7.29-4.07c5.26,0,8.31,3.54,8.31,8.93v14.9h-5.34V321c0-3.63-1.82-5.7-5-5.7s-5.26,2.16-5.26,5.79v13.17h-5.35Z" transform="translate(-94 -93.4)"/><path class="a" d="M643.61,327.84V315.55h-3V311h3v-6.41H649V311h6.28v4.6H649V327c0,2.08,1.07,2.92,2.88,2.92a7.18,7.18,0,0,0,3.31-.79v4.37a9.13,9.13,0,0,1-4.81,1.2C646.39,334.69,643.61,333,643.61,327.84Z" transform="translate(-94 -93.4)"/><path class="a" d="M658.31,331.24l2.39-3.63a13.17,13.17,0,0,0,7.65,2.88c2.3,0,3.62-1,3.62-2.52v-.09c0-1.81-2.47-2.43-5.21-3.27-3.45-1-7.3-2.39-7.3-6.85v-.09c0-4.42,3.67-7.12,8.31-7.12a16.25,16.25,0,0,1,8.58,2.65L674.23,317a13.58,13.58,0,0,0-6.59-2.22c-2.08,0-3.27,1-3.27,2.3v.09c0,1.73,2.52,2.43,5.26,3.32,3.4,1.06,7.25,2.61,7.25,6.81v.08c0,4.91-3.8,7.34-8.67,7.34A16.4,16.4,0,0,1,658.31,331.24Z" transform="translate(-94 -93.4)"/><path class="a" d="M227,197.6V102.92h0V93.4H94v9.52h0V197.6c0,10.94,2.65,16.33,5.29,21.23l127.74,0" transform="translate(-94 -93.4)"/><polygon class="a" points="449.4 0 449.4 8.56 449.4 8.56 449.4 125.45 582.42 125.45 582.42 8.56 582.42 8.56 582.42 0 449.4 0"/><polygon class="a" points="432.8 8.56 432.8 0 299.77 0 299.77 8.56 299.77 8.56 299.77 125.48 432.8 125.48 432.8 8.56 432.8 8.56"/><polygon class="a" points="149.67 0 149.67 8.56 149.67 125.42 282.69 125.42 282.69 8.56 282.69 8.56 282.69 0 149.67 0"/><path class="b" d="M99.28,218.83c5.7,9.24,15.25,16.54,24.6,16.54H227V218.83Z" transform="translate(-94 -93.4)"/><path class="c" d="M567,155.69v-.27c0-26.7,20-48.57,48.43-48.57,17.31,0,27.77,6,36.76,14.63l-10.59,12.21c-7.52-7-15.56-11.68-26.3-11.68-17.84,0-31,14.76-31,33.14v.27c0,18.38,13,33.27,31,33.27,11.54,0,18.91-4.56,27-12.07l10.6,10.73c-9.79,10.2-20.53,16.64-38.1,16.64C587.37,204,567,182.66,567,155.69Z" transform="translate(-94 -93.4)"/><path class="c" d="M452.14,108.47h16.5v93.91h-16.5Z" transform="translate(-94 -93.4)"/><path class="c" d="M279.72,108.47h37c22,0,35.68,12.47,35.68,31.38v.28c0,21.06-16.9,32.06-37.56,32.06H296.22v30.19h-16.5Zm35.68,48.82c12.48,0,20.26-7,20.26-16.76v-.27c0-11-7.91-16.77-20.26-16.77H296.22v33.8Z" transform="translate(-94 -93.4)"/><path class="c" d="M123,108.47h69.63v14.75H139.46v24.42h47.09v14.75H139.46v25.23h53.8v14.76H123Z" transform="translate(-94 -93.4)"/><path class="b" d="M243.68,235.42V218.83h133v16.59Z" transform="translate(-94 -93.4)"/><path class="b" d="M393.77,235.41V218.88h133v16.53Z" transform="translate(-94 -93.4)"/><path class="b" d="M543.4,235.43V218.85h133v16.58Z" transform="translate(-94 -93.4)"/><path class="a" d="M690.6,114.49v0a7.7,7.7,0,1,1,15.4,0v0a7.7,7.7,0,1,1-15.4,0Zm14.52,0v0a6.82,6.82,0,1,0-13.63,0v0a6.77,6.77,0,0,0,6.81,6.86A6.84,6.84,0,0,0,705.12,114.45Zm-10-4.16h3.77c1.85,0,3.23.84,3.23,2.66a2.45,2.45,0,0,1-1.77,2.47l2,2.88H700l-1.73-2.52h-1.24v2.52h-1.95Zm3.63,3.89c.89,0,1.37-.44,1.37-1.1s-.53-1.11-1.37-1.11h-1.68v2.21Z" transform="translate(-94 -93.4)"/></svg>