<?xml version="1.0" encoding="utf-8"?>
<!-- Generator: Adobe Illustrator 26.2.1, SVG Export Plug-In . SVG Version: 6.00 Build 0)  -->
<svg version="1.1" id="Layer_1" xmlns="http://www.w3.org/2000/svg" xmlns:xlink="http://www.w3.org/1999/xlink" x="0px" y="0px"
	 viewBox="0 0 1000 1000" style="enable-background:new 0 0 1000 1000;" xml:space="preserve">
<style type="text/css">
	.st0{opacity:0.6;fill-rule:evenodd;clip-rule:evenodd;fill:url(#SVGID_1_);}
	.st1{opacity:0.6;fill-rule:evenodd;clip-rule:evenodd;fill:url(#SVGID_00000136399601816855515550000004898022456996385191_);}
	.st2{opacity:0.6;fill-rule:evenodd;clip-rule:evenodd;fill:url(#SVGID_00000091729109546433806330000003602091479577487026_);}
	.st3{fill:#254A79;}
	.st4{opacity:0.1;}
	.st5{clip-path:url(#SVGID_00000178189628865525932620000000625167122882694307_);}
	.st6{clip-path:url(#SVGID_00000058584867780798871060000001559393277034682786_);}
	.st7{clip-path:url(#SVGID_00000150103658011415289680000009401107738702843016_);}
	.st8{clip-path:url(#SVGID_00000151535964952682316760000004325036844676543670_);}
	.st9{fill:#4596BC;}
	.st10{clip-path:url(#SVGID_00000183944270431151047790000016263448427273529017_);}
	.st11{clip-path:url(#SVGID_00000179647180625156051750000013720721119039276215_);}
	.st12{clip-path:url(#SVGID_00000068671659791453645850000001556297641923393930_);}
	.st13{clip-path:url(#SVGID_00000142878030937891634240000007122402698371706792_);}
	.st14{clip-path:url(#SVGID_00000170961102648866065390000011870755881897582501_);}
	.st15{clip-path:url(#SVGID_00000013190714356420316670000017405901312739335098_);}
	.st16{clip-path:url(#SVGID_00000096017713082919493980000008012304495563698336_);}
	.st17{clip-path:url(#SVGID_00000062161403454952715040000005595417335469963927_);}
	.st18{clip-path:url(#SVGID_00000018201633374790515000000002631056035670269348_);}
	.st19{clip-path:url(#SVGID_00000111173071264921321410000002701429789234214274_);}
	.st20{clip-path:url(#SVGID_00000130610362837272686190000018097928562827014530_);}
	.st21{clip-path:url(#SVGID_00000044884571237016711760000002882758208003540358_);}
	.st22{clip-path:url(#SVGID_00000112627542466003942000000004422975056105752230_);}
	.st23{clip-path:url(#SVGID_00000020379376069136793260000011512605817921486525_);}
	.st24{clip-path:url(#SVGID_00000111173521638766803570000007238673938150446261_);}
	.st25{clip-path:url(#SVGID_00000131355879866410026360000009049548146813157518_);}
	.st26{clip-path:url(#SVGID_00000062910106503004627520000012866474404622355120_);}
	.st27{clip-path:url(#SVGID_00000095320607829580165110000003534049426623990155_);}
	.st28{clip-path:url(#SVGID_00000134211744974335861460000006254037350383779252_);}
	.st29{clip-path:url(#SVGID_00000066499787054400024230000016221587030719359423_);}
	.st30{clip-path:url(#SVGID_00000000940426967081707740000000121335250986607544_);}
	.st31{clip-path:url(#SVGID_00000144307982453511137440000007246680424633947024_);}
	.st32{clip-path:url(#SVGID_00000021838876828181764850000015048020472638109583_);}
	.st33{clip-path:url(#SVGID_00000168095063938809085230000006133686558586635193_);}
	.st34{clip-path:url(#SVGID_00000163763355044688445780000011565358228266152861_);}
	.st35{clip-path:url(#SVGID_00000029753861076713428640000006514005794145411478_);}
	.st36{clip-path:url(#SVGID_00000029021473028824178920000014683215036475662738_);}
	.st37{clip-path:url(#SVGID_00000175311398767662365920000004053481533069688491_);}
	.st38{clip-path:url(#SVGID_00000051373993782097420330000016389798567070311308_);}
</style>
<linearGradient id="SVGID_1_" gradientUnits="userSpaceOnUse" x1="489.8013" y1="876.4017" x2="856.5621" y2="481.3123">
	<stop  offset="0" style="stop-color:#254A79"/>
	<stop  offset="0.0624" style="stop-color:#254A79;stop-opacity:0.947"/>
	<stop  offset="1" style="stop-color:#254A79;stop-opacity:0.15"/>
</linearGradient>
<path class="st0" d="M919.1,378.15c12.67,47.31-15.21,95.6-62.52,108.28c-47.28,12.67-95.53-15.16-108.26-62.41
	c37.85,141.47-46.12,286.85-187.58,324.76c-44.97,12.05-92.33,12.05-137.3,0h0c-47.31-12.68-95.6,15.2-108.28,62.52
	c-12.68,47.31,15.2,95.61,62.51,108.29c74.95,20.09,153.88,20.09,228.83,0c113.25-30.35,209.81-104.44,268.43-205.98
	C933.56,612.07,949.45,491.4,919.1,378.15L919.1,378.15z M919.1,378.15"/>
<linearGradient id="SVGID_00000031921607349740129140000005777349416267019699_" gradientUnits="userSpaceOnUse" x1="205.3778" y1="158.7852" x2="890.3672" y2="318.2288">
	<stop  offset="0" style="stop-color:#1798C1;stop-opacity:0"/>
	<stop  offset="1" style="stop-color:#1798C1"/>
</linearGradient>
<path style="opacity:0.6;fill-rule:evenodd;clip-rule:evenodd;fill:url(#SVGID_00000031921607349740129140000005777349416267019699_);" d="
	M377.67,65.55c-74.96,20.09-143.31,59.55-198.18,114.42c11.36-11.36,25-19,39.42-22.91c29.53-8,62.34-0.36,85.61,22.91
	c34.63,34.64,34.63,90.4,0,125.04h0c32.92-32.92,73.93-56.6,118.91-68.65c141.5-37.91,286.94,46.06,324.86,187.55h0
	c12.68,47.32,60.97,75.2,108.29,62.52c47.31-12.68,75.19-60.97,62.52-108.28l0,0C888.76,264.9,814.66,168.34,713.13,109.72
	C611.59,51.09,490.92,35.21,377.67,65.55L377.67,65.55z M377.67,65.55"/>
<linearGradient id="SVGID_00000115514849765794111320000005985822620394649772_" gradientUnits="userSpaceOnUse" x1="162.6859" y1="295.6615" x2="301.9084" y2="783.5127">
	<stop  offset="0" style="stop-color:#66CCFF"/>
	<stop  offset="1" style="stop-color:#66CCFF;stop-opacity:0"/>
</linearGradient>
<path style="opacity:0.6;fill-rule:evenodd;clip-rule:evenodd;fill:url(#SVGID_00000115514849765794111320000005985822620394649772_);" d="
	M218.92,157.07c-14.42,3.91-28.06,11.54-39.42,22.91c0,0,0,0,0,0C67.81,291.66,24.2,454.43,65.07,606.99
	c40.88,152.56,160.04,271.72,312.6,312.6c-47.31-12.68-75.19-60.97-62.51-108.29c12.68-47.31,60.97-75.19,108.28-62.52
	c-91.54-24.53-163.03-96.03-187.56-187.56c-24.53-91.54,1.65-189.2,68.65-256.21h0c34.63-34.64,34.63-90.4,0-125.04
	C281.26,156.7,248.45,149.07,218.92,157.07L218.92,157.07z M218.92,157.07"/>
<g>
	<path class="st3" d="M453.1,138.65c-0.56-0.68-1.23-1.26-1.99-1.73c-0.77-0.47-1.61-0.8-2.53-1c-0.92-0.2-1.86-0.23-2.81-0.11
		c-1.75,0.23-3.19,0.77-4.33,1.6c-1.13,0.84-2.01,1.88-2.61,3.12c-0.61,1.24-0.99,2.61-1.15,4.11c-0.16,1.5-0.13,3.03,0.07,4.58
		c0.2,1.49,0.56,2.91,1.09,4.27c0.53,1.36,1.25,2.55,2.16,3.57c0.91,1.02,2.02,1.79,3.33,2.31c1.31,0.52,2.84,0.66,4.6,0.43
		c2.38-0.31,4.14-1.29,5.29-2.92c1.15-1.63,1.71-3.66,1.7-6.07l7.53-0.99c0.09,2.24-0.16,4.31-0.75,6.2
		c-0.59,1.89-1.48,3.56-2.67,4.99c-1.19,1.44-2.65,2.6-4.38,3.5c-1.73,0.9-3.69,1.49-5.87,1.78c-2.71,0.36-5.21,0.21-7.5-0.45
		c-2.29-0.66-4.29-1.71-5.99-3.17c-1.71-1.46-3.1-3.25-4.19-5.37s-1.8-4.48-2.14-7.06c-0.35-2.64-0.28-5.15,0.22-7.52
		s1.37-4.49,2.64-6.38c1.27-1.88,2.92-3.44,4.96-4.69c2.04-1.24,4.41-2.04,7.12-2.4c1.95-0.26,3.83-0.22,5.64,0.11
		c1.81,0.33,3.47,0.95,4.98,1.84c1.51,0.89,2.82,2.07,3.92,3.54c1.1,1.47,1.9,3.21,2.4,5.23l-7.53,0.99
		C454.07,140.11,453.66,139.33,453.1,138.65z"/>
	<path class="st3" d="M472.85,137.79c0.78-2.29,1.91-4.29,3.4-6c1.49-1.71,3.32-3.06,5.49-4.05c2.17-0.98,4.63-1.49,7.36-1.51
		c2.77-0.02,5.24,0.44,7.41,1.39c2.17,0.95,4.02,2.27,5.53,3.95s2.68,3.67,3.5,5.95c0.82,2.28,1.24,4.75,1.26,7.42
		c0.02,2.6-0.36,5.03-1.14,7.29c-0.78,2.26-1.92,4.22-3.4,5.9c-1.49,1.68-3.31,3-5.47,3.97c-2.16,0.97-4.62,1.46-7.39,1.49
		c-2.73,0.02-5.2-0.43-7.39-1.36c-2.19-0.93-4.04-2.22-5.56-3.88c-1.51-1.65-2.68-3.6-3.5-5.85c-0.82-2.24-1.24-4.67-1.26-7.27
		C471.68,142.56,472.06,140.08,472.85,137.79z M480.12,149.54c0.36,1.41,0.93,2.68,1.71,3.81c0.78,1.13,1.78,2.03,3.02,2.7
		c1.24,0.67,2.74,1,4.51,0.99c1.77-0.01,3.26-0.37,4.49-1.06c1.23-0.69,2.22-1.61,2.98-2.75c0.76-1.14,1.3-2.42,1.64-3.84
		c0.34-1.42,0.5-2.88,0.49-4.38c-0.01-1.57-0.2-3.08-0.56-4.54c-0.36-1.46-0.93-2.77-1.71-3.91c-0.78-1.14-1.78-2.05-3.02-2.73
		c-1.24-0.67-2.74-1-4.51-0.99c-1.77,0.01-3.26,0.37-4.49,1.06c-1.23,0.69-2.22,1.62-2.98,2.77c-0.76,1.16-1.3,2.47-1.64,3.94
		c-0.34,1.47-0.5,2.99-0.49,4.55C479.57,146.66,479.76,148.12,480.12,149.54z"/>
	<path class="st3" d="M530.4,128.98l5.18,25.41l0.1,0.01l10.94-23.36l10.96,1.4l-4.51,35.41l-7.29-0.93l3.19-25.1l-0.1-0.01
		L537,165.81l-6-0.76l-5.52-25.95l-0.1-0.01l-3.16,24.85l-7.29-0.93l4.51-35.41L530.4,128.98z"/>
	<path class="st3" d="M582.49,138.27l1.46,25.89l0.1,0.03l14.19-21.53l10.65,2.96l-9.57,34.39l-7.08-1.97l6.78-24.37l-0.1-0.03
		l-15.21,22.03l-5.83-1.62l-1.71-26.48l-0.1-0.03l-6.72,24.13l-7.08-1.97l9.57-34.39L582.49,138.27z"/>
	<path class="st3" d="M633.45,191.28c-3.41,1.1-7.3,0.7-11.68-1.17c-4.44-1.9-7.42-4.45-8.94-7.64c-1.52-3.19-1.32-7.02,0.6-11.49
		l8.75-20.4l7.22,3.09l-8.75,20.4c-0.38,0.89-0.68,1.79-0.89,2.72c-0.22,0.92-0.22,1.82-0.01,2.69c0.21,0.87,0.66,1.7,1.36,2.49
		s1.78,1.5,3.25,2.13c2.57,1.1,4.6,1.29,6.07,0.56c1.47-0.73,2.73-2.32,3.79-4.77l8.75-20.4l7.21,3.09l-8.75,20.4
		C639.51,187.42,636.86,190.18,633.45,191.28z"/>
	<path class="st3" d="M669.37,172.77l0.84,28.19l0.09,0.05l12.04-20.7l6.35,3.7l-17.95,30.86l-6.79-3.95l-0.82-28.13l-0.09-0.05
		l-12.02,20.66l-6.35-3.7l17.95-30.86L669.37,172.77z"/>
	<path class="st3" d="M706.19,196.27l-20.63,29.13l-6.41-4.54l20.63-29.13L706.19,196.27z"/>
	<path class="st3" d="M728.4,226.24c0.13-0.87,0.11-1.75-0.05-2.64c-0.17-0.88-0.48-1.73-0.95-2.55c-0.47-0.81-1.07-1.53-1.81-2.16
		c-1.35-1.14-2.71-1.86-4.09-2.13c-1.38-0.28-2.74-0.23-4.07,0.15c-1.33,0.38-2.6,1.01-3.82,1.91c-1.22,0.89-2.33,1.93-3.35,3.13
		c-0.97,1.14-1.78,2.37-2.43,3.67c-0.65,1.31-1.05,2.64-1.2,4c-0.15,1.36,0.02,2.7,0.52,4.02c0.5,1.32,1.42,2.55,2.76,3.7
		c1.83,1.55,3.73,2.21,5.71,1.97c1.98-0.24,3.86-1.18,5.64-2.82l5.79,4.92c-1.6,1.57-3.3,2.77-5.1,3.61
		c-1.8,0.83-3.63,1.29-5.49,1.37c-1.86,0.08-3.71-0.22-5.54-0.9c-1.83-0.68-3.58-1.73-5.26-3.16c-2.08-1.77-3.65-3.73-4.7-5.86
		c-1.05-2.14-1.6-4.33-1.67-6.57c-0.06-2.24,0.33-4.48,1.18-6.71c0.85-2.23,2.11-4.34,3.8-6.32c1.73-2.03,3.64-3.66,5.72-4.88
		c2.09-1.22,4.25-1.99,6.5-2.32c2.24-0.32,4.51-0.15,6.8,0.53c2.29,0.68,4.48,1.9,6.56,3.67c1.5,1.27,2.73,2.69,3.7,4.26
		c0.97,1.57,1.62,3.21,1.98,4.93c0.35,1.72,0.35,3.48,0,5.29c-0.35,1.8-1.11,3.57-2.27,5.29l-5.79-4.92
		C727.97,227.94,728.27,227.11,728.4,226.24z"/>
	<path class="st3" d="M762.31,246.41l-16.99,34.12l-5.56-5.96l3.97-7.4l-9.11-9.76l-7.72,3.38l-5.39-5.77l35.31-14.49L762.31,246.41
		z M746.6,261.68l6.51-12.23l-0.07-0.07l-12.75,5.54L746.6,261.68z"/>
	<path class="st3" d="M767.64,262.11l5.23-4.03l17.86,23.16l-5.23,4.03l-6.53-8.47l-23.04,17.77l-4.79-6.22l23.04-17.77
		L767.64,262.11z"/>
	<path class="st3" d="M810.88,313.08l-5.62,3.46l-9.88-16.06l-6.52,4.01l9.06,14.73l-5.2,3.2l-9.07-14.73l-7.45,4.58l10.09,16.4
		l-5.62,3.46l-14.2-23.08l30.41-18.71L810.88,313.08z"/>
</g>
<g>
	<path class="st3" d="M781.28,716.59l-5.37-3.84l10.95-15.34l-6.23-4.45l-10.05,14.08l-4.96-3.54l10.05-14.08l-7.12-5.08L757.37,700
		l-5.37-3.84l15.75-22.05l29.05,20.75L781.28,716.59z"/>
	<path class="st3" d="M768.11,732.37l-27.76-4.99l-0.07,0.07l17.78,16.05l-4.93,5.46l-26.5-23.92l5.26-5.83l27.69,4.99l0.07-0.07
		l-17.74-16.02l4.93-5.46l26.5,23.92L768.11,732.37z"/>
	<path class="st3" d="M703.87,745.93c0.82-1.65,1.88-3.05,3.19-4.18c2.07-1.79,4.24-3.04,6.51-3.75c2.27-0.71,4.52-0.93,6.75-0.65
		c2.22,0.28,4.38,1.01,6.45,2.18c2.08,1.18,3.97,2.75,5.67,4.71c1.75,2.02,3.06,4.15,3.95,6.4c0.89,2.25,1.32,4.51,1.3,6.78
		c-0.02,2.27-0.54,4.48-1.56,6.64c-1.02,2.16-2.56,4.13-4.63,5.92c-1.39,1.2-2.91,2.15-4.57,2.86c-1.66,0.71-3.36,1.11-5.1,1.21
		c-1.74,0.1-3.47-0.15-5.17-0.74c-1.71-0.6-3.3-1.6-4.78-3l5.67-4.91c1.66,1.21,3.32,1.75,4.99,1.63c1.66-0.12,3.21-0.8,4.65-2.04
		c1.34-1.16,2.25-2.4,2.73-3.72c0.49-1.32,0.64-2.67,0.47-4.04c-0.17-1.37-0.61-2.73-1.3-4.06c-0.7-1.34-1.56-2.6-2.58-3.78
		c-0.98-1.13-2.07-2.12-3.26-2.96c-1.19-0.84-2.45-1.44-3.77-1.8c-1.32-0.36-2.67-0.39-4.05-0.1c-1.38,0.29-2.74,1.01-4.07,2.17
		c-1.97,1.7-3.05,3.51-3.26,5.44c-0.21,1.92,0.42,3.91,1.88,5.95l5.97-5.17l3.83,4.42l-11.34,9.82l-12.63-14.59l3.78-3.27l3.26,2.54
		C702.71,749.55,703.06,747.59,703.87,745.93z"/>
	<path class="st3" d="M693.62,797.61l-31.05-22.1l6.75-4.56l6.69,5.07l11.06-7.48l-2.13-8.15l6.54-4.42l8.81,37.14L693.62,797.61z
		 M680.98,779.72l11.06,8.33l0.08-0.06l-3.48-13.46L680.98,779.72z"/>
	<path class="st3" d="M638.65,788.41c1.18-1.42,2.55-2.52,4.09-3.31c2.43-1.25,4.83-1.96,7.21-2.11c2.38-0.16,4.61,0.16,6.71,0.96
		c2.1,0.79,4.02,2.01,5.76,3.64c1.74,1.63,3.21,3.61,4.4,5.92c1.22,2.37,2,4.75,2.33,7.15c0.33,2.4,0.22,4.69-0.33,6.89
		c-0.56,2.2-1.58,4.23-3.08,6.09c-1.5,1.86-3.46,3.41-5.89,4.67c-1.63,0.84-3.33,1.41-5.11,1.7c-1.78,0.3-3.53,0.29-5.24-0.03
		c-1.72-0.32-3.34-0.96-4.85-1.94c-1.52-0.98-2.83-2.33-3.94-4.05l6.67-3.43c1.33,1.56,2.82,2.49,4.46,2.76
		c1.64,0.28,3.31-0.02,5-0.89c1.57-0.81,2.75-1.8,3.53-2.97c0.78-1.17,1.25-2.45,1.41-3.82c0.16-1.37,0.05-2.79-0.31-4.26
		c-0.36-1.46-0.9-2.89-1.62-4.29c-0.69-1.33-1.51-2.55-2.47-3.65c-0.96-1.1-2.04-1.98-3.24-2.63c-1.2-0.66-2.51-1.01-3.91-1.05
		c-1.41-0.04-2.9,0.34-4.47,1.15c-2.31,1.19-3.79,2.7-4.45,4.51c-0.66,1.82-0.52,3.89,0.42,6.22l7.02-3.62l2.68,5.2l-13.34,6.87
		l-8.84-17.16l4.45-2.29l2.57,3.23C636.66,791.66,637.47,789.83,638.65,788.41z"/>
	<path class="st3" d="M608.28,839.38l-2.33-6.17l17.64-6.66l-2.7-7.16l-16.19,6.11l-2.15-5.71l16.19-6.11l-3.09-8.19l-18.01,6.8
		l-2.33-6.17l25.35-9.57l12.61,33.4L608.28,839.38z"/>
</g>
<g>
	<path class="st3" d="M178.17,391.15l-25.91,1.05l-0.03,0.1l21.3,14.53l-3.13,10.6l-34.24-10.12l2.08-7.05l24.26,7.17l0.03-0.1
		l-21.78-15.56l1.71-5.8l26.5-1.29l0.03-0.1l-24.02-7.1l2.08-7.05l34.24,10.12L178.17,391.15z"/>
	<path class="st3" d="M164.29,453.33l-6.51-1.07l3.05-18.6l-7.55-1.24l-2.8,17.07l-6.02-0.99l2.8-17.07l-8.63-1.42l-3.12,19
		l-6.51-1.07l4.39-26.74l35.23,5.78L164.29,453.33z"/>
	<path class="st3" d="M162.44,479.8l-36.35,11.47l0.43-8.14l8.08-2.28l0.7-13.33l-7.79-3.21l0.41-7.89l34.95,15.34L162.44,479.8z
		 M140.54,479.11l13.32-3.81l0.01-0.1l-12.84-5.33L140.54,479.11z"/>
	<path class="st3" d="M135.52,506.85c-0.81,0.48-1.45,1.1-1.92,1.84c-0.47,0.75-0.81,1.61-1,2.59c-0.19,0.98-0.26,1.99-0.2,3.02
		c0.04,0.7,0.14,1.44,0.31,2.24c0.16,0.79,0.43,1.53,0.81,2.21c0.37,0.68,0.87,1.23,1.48,1.67c0.61,0.43,1.36,0.62,2.26,0.57
		c0.96-0.06,1.73-0.41,2.29-1.06c0.56-0.65,1.01-1.49,1.35-2.51c0.34-1.02,0.62-2.17,0.85-3.46c0.22-1.28,0.48-2.58,0.77-3.9
		c0.25-1.35,0.58-2.67,0.99-3.97c0.41-1.29,0.96-2.46,1.67-3.5c0.71-1.04,1.62-1.91,2.73-2.59c1.11-0.68,2.48-1.07,4.11-1.17
		c1.83-0.11,3.44,0.19,4.84,0.89c1.39,0.7,2.58,1.66,3.55,2.87c0.97,1.21,1.72,2.6,2.25,4.17c0.53,1.57,0.84,3.16,0.93,4.75
		c0.11,1.86,0.01,3.66-0.31,5.4c-0.32,1.74-0.9,3.3-1.75,4.69c-0.85,1.39-1.98,2.51-3.38,3.38c-1.4,0.87-3.13,1.36-5.2,1.48
		l-0.45-7.59c1.06-0.13,1.93-0.41,2.61-0.83c0.68-0.42,1.2-0.96,1.56-1.62c0.36-0.66,0.6-1.4,0.72-2.22
		c0.12-0.83,0.15-1.72,0.09-2.69c-0.04-0.63-0.14-1.26-0.31-1.88c-0.17-0.62-0.44-1.19-0.8-1.68c-0.36-0.5-0.8-0.9-1.32-1.2
		c-0.52-0.3-1.16-0.43-1.93-0.39c-0.7,0.04-1.26,0.21-1.67,0.5c-0.42,0.29-0.79,0.84-1.11,1.64c-0.32,0.8-0.62,1.91-0.91,3.31
		c-0.29,1.4-0.64,3.24-1.08,5.5c-0.09,0.67-0.28,1.61-0.56,2.81c-0.28,1.2-0.77,2.41-1.46,3.62c-0.7,1.21-1.66,2.28-2.89,3.2
		c-1.23,0.92-2.84,1.44-4.84,1.56c-1.63,0.1-3.16-0.13-4.6-0.68c-1.44-0.55-2.7-1.42-3.79-2.61c-1.09-1.19-1.97-2.69-2.64-4.5
		s-1.08-3.94-1.23-6.36c-0.12-1.96,0.01-3.88,0.39-5.76c0.37-1.88,1.03-3.55,1.98-5.03c0.95-1.48,2.2-2.68,3.74-3.6
		c1.55-0.93,3.42-1.44,5.62-1.53l0.45,7.59C137.33,506.09,136.33,506.37,135.52,506.85z"/>
	<path class="st3" d="M136.61,566.16c-2.78-2.25-4.59-5.73-5.41-10.42c-0.84-4.76-0.34-8.65,1.5-11.66
		c1.84-3.01,5.16-4.94,9.95-5.78l21.86-3.84l1.36,7.73l-21.86,3.84c-0.95,0.17-1.87,0.41-2.76,0.74c-0.89,0.33-1.64,0.81-2.26,1.46
		c-0.61,0.65-1.06,1.48-1.34,2.49c-0.28,1.01-0.28,2.31,0,3.88c0.48,2.76,1.44,4.55,2.85,5.39c1.42,0.83,3.44,1.02,6.06,0.56
		l21.86-3.84l1.36,7.73l-21.86,3.84C143.17,569.12,139.39,568.41,136.61,566.16z"/>
	<path class="st3" d="M177.64,592.23c0.46,1.53,0.63,2.99,0.51,4.36c-0.12,1.38-0.48,2.63-1.08,3.77c-0.6,1.14-1.39,2.11-2.38,2.92
		c-0.99,0.81-2.14,1.41-3.45,1.8c-2.01,0.61-3.88,0.71-5.6,0.31c-1.72-0.4-3.26-1.44-4.6-3.13l-0.1,0.03c0.02,1-0.13,1.89-0.48,2.65
		c-0.34,0.76-0.82,1.45-1.42,2.05s-1.31,1.12-2.12,1.55c-0.81,0.44-1.63,0.82-2.48,1.14c-0.53,0.2-1.16,0.42-1.89,0.67
		c-0.72,0.25-1.46,0.54-2.2,0.85c-0.74,0.31-1.43,0.66-2.06,1.04c-0.63,0.38-1.14,0.82-1.51,1.32l-2.27-7.51
		c0.96-0.74,2.17-1.39,3.65-1.94c1.47-0.55,2.86-1.13,4.18-1.73c1.71-0.8,2.85-1.73,3.43-2.81c0.58-1.08,0.58-2.56,0.01-4.44
		l-2.27-7.51l-13.35,4.04l-2.27-7.51l34.17-10.34L177.64,592.23z M161.37,594.23c0.52,1.72,1.3,2.9,2.32,3.53
		c1.03,0.63,2.4,0.68,4.12,0.16c1.66-0.5,2.73-1.3,3.22-2.39c0.49-1.09,0.47-2.49-0.05-4.22l-2.49-8.23l-9.62,2.91L161.37,594.23z"
		/>
	<path class="st3" d="M194.59,635.58l-6.06,2.61l-7.45-17.31l-7.03,3.02l6.84,15.89l-5.6,2.41l-6.84-15.89l-8.04,3.46l7.61,17.68
		l-6.06,2.61l-10.72-24.89l32.79-14.11L194.59,635.58z"/>
</g>
<g>
	<path class="st3" d="M553.15,419.73l14.51-14.51c6.14-6.14,16.64-1.79,16.64,6.89v54.46c0,5.38-4.37,9.75-9.75,9.75H520.1
		c-8.69,0-13.04-10.5-6.89-16.64l16.96-16.96c-12.54-11.74-28.76-18.24-46-18.39c-37.54-0.32-69.18,30.05-68.85,68.84
		c0.31,36.79,30.13,67.66,68.25,67.66c16.71,0,32.5-5.96,44.94-16.88c1.93-1.69,4.84-1.59,6.65,0.22l16.11,16.11
		c1.98,1.98,1.88,5.21-0.2,7.08c-17.86,16.14-41.54,25.96-67.51,25.96c-55.64,0-100.75-45.11-100.75-100.75
		c0-55.58,45.36-100.85,100.93-100.75C510.66,391.88,535.11,402.49,553.15,419.73z"/>
</g>
</svg>
