<?xml version="1.0" encoding="UTF-8"?><svg id="a" xmlns="http://www.w3.org/2000/svg" xmlns:xlink="http://www.w3.org/1999/xlink" viewBox="0 0 1000 1000"><defs><style>.e{font-size:59.21px;}.e,.f,.g,.h,.i{fill:#254a79;}.e,.f,.g,.i,.j{font-family:HelveticaNeue-Bold, Helvetica Neue;}.f{font-size:59.21px;}.g{font-size:59.21px;}.k{fill:url(#d);}.k,.l,.m{fill-rule:evenodd;opacity:.6;}.l{fill:url(#c);}.m{fill:url(#b);}.n{fill:#6cf;}.o{fill:#1798c1;}.i,.j{font-size:78.95px;}.j{fill:#fff;}</style><linearGradient id="b" x1="489.8" y1="876.4" x2="856.56" y2="481.31" gradientTransform="matrix(1, 0, 0, 1, 0, 0)" gradientUnits="userSpaceOnUse"><stop offset="0" stop-color="#254a79"/><stop offset=".06" stop-color="#254a79" stop-opacity=".89"/><stop offset=".23" stop-color="#254a79" stop-opacity=".62"/><stop offset=".41" stop-color="#254a79" stop-opacity=".42"/><stop offset=".59" stop-color="#254a79" stop-opacity=".27"/><stop offset=".78" stop-color="#254a79" stop-opacity=".18"/><stop offset="1" stop-color="#254a79" stop-opacity=".15"/></linearGradient><linearGradient id="c" x1="205.38" y1="158.79" x2="890.37" y2="318.23" gradientTransform="matrix(1, 0, 0, 1, 0, 0)" gradientUnits="userSpaceOnUse"><stop offset="0" stop-color="#1798c1" stop-opacity="0"/><stop offset="1" stop-color="#1798c1"/></linearGradient><linearGradient id="d" x1="162.69" y1="295.66" x2="301.91" y2="783.51" gradientTransform="matrix(1, 0, 0, 1, 0, 0)" gradientUnits="userSpaceOnUse"><stop offset="0" stop-color="#6cf"/><stop offset=".26" stop-color="#6cf" stop-opacity=".76"/><stop offset=".86" stop-color="#6cf" stop-opacity=".15"/><stop offset="1" stop-color="#6cf" stop-opacity="0"/></linearGradient></defs><g><path class="m" d="M919.1,378.15c12.67,47.31-15.21,95.6-62.52,108.28-47.28,12.67-95.53-15.16-108.26-62.41,37.85,141.47-46.12,286.85-187.58,324.76-44.97,12.05-92.33,12.05-137.3,0h0c-47.31-12.68-95.6,15.2-108.28,62.52-12.68,47.31,15.2,95.61,62.51,108.29,74.95,20.09,153.88,20.09,228.83,0,113.25-30.35,209.81-104.44,268.43-205.98,58.62-101.54,74.51-222.21,44.17-335.46h0Zm0,0"/><path class="l" d="M377.67,65.55c-74.96,20.09-143.31,59.55-198.18,114.42,11.36-11.36,25-19,39.42-22.91,29.53-8,62.34-.36,85.61,22.91,34.63,34.64,34.63,90.4,0,125.04h0c32.92-32.92,73.93-56.6,118.91-68.65,141.5-37.91,286.94,46.06,324.86,187.55h0c12.68,47.32,60.97,75.2,108.29,62.52,47.31-12.68,75.19-60.97,62.52-108.28h0c-30.35-113.26-104.44-209.81-205.98-268.44-101.54-58.62-222.21-74.51-335.46-44.16h0Zm0,0"/><path class="k" d="M218.92,157.07c-14.42,3.91-28.06,11.54-39.42,22.91h0C67.81,291.66,24.2,454.43,65.07,606.99c40.88,152.56,160.04,271.72,312.6,312.6-47.31-12.68-75.19-60.97-62.51-108.29,12.68-47.31,60.97-75.19,108.28-62.52-91.54-24.53-163.03-96.03-187.56-187.56-24.53-91.54,1.65-189.2,68.65-256.21h0c34.63-34.64,34.63-90.4,0-125.04-23.27-23.27-56.08-30.9-85.61-22.91h0Zm0,0"/><circle class="o" cx="834.92" cy="401.86" r="115.08"/><circle class="h" cx="399.32" cy="834.44" r="115.08"/><circle class="n" cx="242.31" cy="241.94" r="115.08"/><text class="j" transform="translate(813.35 426.82)"><tspan x="0" y="0">1</tspan></text><text class="j" transform="translate(373.82 865.7)"><tspan x="0" y="0">2</tspan></text><text class="i" transform="translate(215.8 270.2)"><tspan x="0" y="0">3</tspan></text><text class="f" transform="translate(412.16 174.88) rotate(-9.43)"><tspan x="0" y="0">M</tspan></text><text class="f" transform="translate(473.59 166.03) rotate(.06)"><tspan x="0" y="0">E</tspan></text><text class="f" transform="translate(520.74 166.64) rotate(8.53)"><tspan x="0" y="0">A</tspan></text><text class="f" transform="translate(569.38 174.67) rotate(17.05)"><tspan x="0" y="0">S</tspan></text><text class="f" transform="translate(614.26 188.92) rotate(25.83)"><tspan x="0" y="0">U</tspan></text><text class="f" transform="translate(661.08 212.04) rotate(35.6)"><tspan x="0" y="0">R</tspan></text><text class="f" transform="translate(702.91 242.49) rotate(43.42)"><tspan x="0" y="0">E</tspan></text><text class="g" transform="translate(214.45 665.73) rotate(-118.24)"><tspan x="0" y="0">R</tspan></text><text class="g" transform="translate(190.84 620.05) rotate(-109.63)"><tspan x="0" y="0">E</tspan></text><text class="g" transform="translate(175.56 575.42) rotate(-101.22)"><tspan x="0" y="0">P</tspan></text><text class="g" transform="translate(166.84 527.96) rotate(-92.79)"><tspan x="0" y="0">E</tspan></text><text class="g" transform="translate(165.12 480.85) rotate(-84.32)"><tspan x="0" y="0">A</tspan></text><text class="g" transform="translate(169.89 436.8) rotate(-77.05)"><tspan x="0" y="0">T</tspan></text><text class="e" transform="translate(618.79 839.44) rotate(-23.1)"><tspan x="0" y="0">E</tspan></text><text class="e" transform="translate(667.56 817.63) rotate(-31.71)"><tspan x="0" y="0">N</tspan></text><text class="e" transform="translate(717.29 785.51) rotate(-41)"><tspan x="0" y="0">G</tspan></text><text class="e" transform="translate(761.78 745.02) rotate(-50.06)"><tspan x="0" y="0">A</tspan></text><text class="e" transform="translate(796.78 701.6) rotate(-59.09)"><tspan x="0" y="0">G</tspan></text><text class="e" transform="translate(826.41 649.37) rotate(-67.87)"><tspan x="0" y="0">E</tspan></text></g><path class="n" d="M576.1,395.71l19.29-19.29c8.17-8.17,22.13-2.38,22.13,9.17v72.42c0,7.16-5.8,12.96-12.96,12.96h-72.42c-11.55,0-17.34-13.96-9.17-22.13l22.55-22.55c-16.67-15.61-38.25-24.26-61.17-24.46-49.92-.43-91.99,39.96-91.56,91.54,.41,48.92,40.07,89.97,90.75,89.97,22.22,0,43.21-7.93,59.76-22.45,2.56-2.25,6.43-2.11,8.84,.3l21.43,21.43c2.63,2.63,2.5,6.92-.26,9.42-23.75,21.46-55.24,34.52-89.77,34.52-73.99,0-133.97-59.98-133.97-133.97s60.31-134.1,134.22-133.97c35.8,.07,68.3,14.17,92.3,37.1Z"/></svg>