<svg id="Layer_1" data-name="Layer 1" xmlns="http://www.w3.org/2000/svg" xmlns:xlink="http://www.w3.org/1999/xlink" viewBox="0 0 1000 1000"><defs><style>.cls-1,.cls-8{fill:#fff;}.cls-1{filter:url(#filter);}.cls-2,.cls-3,.cls-4{fill-rule:evenodd;opacity:0.6;}.cls-2{fill:url(#linear-gradient);}.cls-3{fill:url(#linear-gradient-2);}.cls-4{fill:url(#linear-gradient-3);}.cls-5{fill:#1798c1;}.cls-10,.cls-11,.cls-12,.cls-6,.cls-9{fill:#254a79;}.cls-7{fill:#6cf;}.cls-8,.cls-9{font-size:78.95px;}.cls-10,.cls-11,.cls-12,.cls-8,.cls-9{font-family:HelveticaNeue-Bold, HelveticaNeue Bold;font-weight:700;}.cls-10{font-size:59.21px;}.cls-11{font-size:59.21px;}.cls-12{font-size:59.21px;}</style><filter id="filter" x="19.66" y="30.09" width="945" height="945" filterUnits="userSpaceOnUse"><feOffset dy="10" input="SourceAlpha"/><feGaussianBlur stdDeviation="10" result="blur"/><feFlood/><feComposite operator="in" in2="blur"/><feComposite in="SourceGraphic"/></filter><linearGradient id="linear-gradient" x1="489.8" y1="876.4" x2="856.56" y2="481.31" gradientUnits="userSpaceOnUse"><stop offset="0" stop-color="#254a79"/><stop offset="0.06" stop-color="#254a79" stop-opacity="0.89"/><stop offset="0.23" stop-color="#254a79" stop-opacity="0.62"/><stop offset="0.41" stop-color="#254a79" stop-opacity="0.42"/><stop offset="0.59" stop-color="#254a79" stop-opacity="0.27"/><stop offset="0.78" stop-color="#254a79" stop-opacity="0.18"/><stop offset="1" stop-color="#254a79" stop-opacity="0.15"/></linearGradient><linearGradient id="linear-gradient-2" x1="205.38" y1="158.79" x2="890.37" y2="318.23" gradientUnits="userSpaceOnUse"><stop offset="0" stop-color="#1798c1" stop-opacity="0"/><stop offset="1" stop-color="#1798c1"/></linearGradient><linearGradient id="linear-gradient-3" x1="162.69" y1="295.66" x2="301.91" y2="783.51" gradientUnits="userSpaceOnUse"><stop offset="0" stop-color="#6cf"/><stop offset="0.26" stop-color="#6cf" stop-opacity="0.76"/><stop offset="0.86" stop-color="#6cf" stop-opacity="0.15"/><stop offset="1" stop-color="#6cf" stop-opacity="0"/></linearGradient></defs><circle class="cls-1" cx="492.07" cy="492.58" r="442.07"/><path class="cls-2" d="M919.1,378.15A88.42,88.42,0,0,1,748.32,424C786.17,565.5,702.2,710.88,560.74,748.78a265.26,265.26,0,0,1-137.3,0h0a88.42,88.42,0,0,0-45.77,170.81A442.08,442.08,0,0,0,919.1,378.15Zm0,0"/><path class="cls-3" d="M377.67,65.55A442.13,442.13,0,0,0,179.49,180a88.42,88.42,0,0,1,125,125h0a265.23,265.23,0,0,1,118.91-68.65c141.49-37.92,286.94,46.06,324.85,187.55h0A88.42,88.42,0,0,0,919.1,378.15h0A442.08,442.08,0,0,0,377.67,65.55Zm0,0"/><path class="cls-4" d="M218.92,157.07A88.29,88.29,0,0,0,179.49,180h0A442.08,442.08,0,0,0,377.67,919.59a88.42,88.42,0,0,1,45.77-170.81A265.25,265.25,0,0,1,304.53,305h0a88.47,88.47,0,0,0-85.61-147.94Zm0,0"/><circle class="cls-5" cx="834.92" cy="401.86" r="115.08"/><circle class="cls-6" cx="399.32" cy="834.44" r="115.08"/><circle class="cls-7" cx="242.31" cy="241.94" r="115.08"/><text class="cls-8" transform="translate(815.05 426.5)">1</text><text class="cls-8" transform="translate(375.51 865.39)">2</text><text class="cls-9" transform="translate(217.5 269.89)">3</text><text class="cls-10" transform="translate(437.43 168.62) rotate(-5.45)">M</text><text class="cls-10" transform="matrix(1, 0.05, -0.05, 1, 493.86, 164.54)">E</text><text class="cls-10" transform="translate(532.24 166.78) rotate(10.15)">A</text><text class="cls-10" transform="translate(576.9 175.62) rotate(17.55)">S</text><text class="cls-10" transform="translate(613.45 187.51) rotate(25.11)">U</text><text class="cls-10" transform="matrix(0.84, 0.54, -0.54, 0.84, 656.09, 208.42)">R</text><text class="cls-10" transform="matrix(0.77, 0.64, -0.64, 0.77, 690.46, 231.34)">E</text><text class="cls-11" transform="translate(202.32 646.45) rotate(-115.24)">R</text><text class="cls-11" transform="translate(185.31 608.83) rotate(-108.26)">E</text><text class="cls-11" transform="matrix(-0.2, -0.98, 0.98, -0.2, 173.71, 572.07)">P</text><text class="cls-11" transform="translate(166.33 531.79) rotate(-94.28)">E</text><text class="cls-11" transform="translate(163.84 493.45) rotate(-86.91)">A</text><text class="cls-11" transform="translate(166.61 452.24) rotate(-80.54)">T</text><text class="cls-12" transform="matrix(0.9, -0.43, 0.43, 0.9, 638.62, 829.99)">E</text><text class="cls-12" transform="matrix(0.84, -0.55, 0.55, 0.84, 677.61, 810.49)">N</text><text class="cls-12" transform="translate(721.95 780.13) rotate(-41.58)">G</text><text class="cls-12" transform="matrix(0.65, -0.76, 0.76, 0.65, 760.81, 744.15)">A</text><text class="cls-12" transform="matrix(0.53, -0.85, 0.85, 0.53, 792.44, 705.44)">G</text><text class="cls-12" transform="translate(819.53 660.25) rotate(-65.19)">E</text><path class="cls-7" d="M576.1,395.71l19.3-19.29a13,13,0,0,1,22.13,9.17V458a13,13,0,0,1-13,13H532.14A13,13,0,0,1,523,448.84l22.55-22.55a90.07,90.07,0,0,0-61.17-24.46c-49.91-.43-92,40-91.56,91.53a90.77,90.77,0,0,0,150.52,67.53,6.48,6.48,0,0,1,8.84.29l21.43,21.43a6.5,6.5,0,0,1-.26,9.42,134,134,0,0,1-223.74-99.45c0-73.9,60.31-134.1,134.21-134A133.51,133.51,0,0,1,576.1,395.71Z"/></svg>